<svg xmlns="http://www.w3.org/2000/svg" width="25" height="24" viewBox="0 0 25 24" fill="none">
  <path fill-rule="evenodd" clip-rule="evenodd" d="M7.99984 6C7.99984 3.51472 10.0146 1.5 12.4998 1.5C14.9851 1.5 16.9998 3.51472 16.9998 6C16.9998 8.48528 14.9851 10.5 12.4998 10.5C10.0146 10.5 7.99984 8.48528 7.99984 6Z" fill="#4880FF"/>
  <path fill-rule="evenodd" clip-rule="evenodd" d="M4.25109 20.1053C4.32843 15.6156 7.99183 12 12.4998 12C17.008 12 20.6714 15.6157 20.7486 20.1056C20.7537 20.4034 20.5822 20.676 20.3115 20.8002C17.9326 21.8918 15.2864 22.5 12.5002 22.5C9.7137 22.5 7.06728 21.8917 4.68816 20.7999C4.41749 20.6757 4.24596 20.4031 4.25109 20.1053Z" fill="#4880FF"/>
</svg>