<svg xmlns="http://www.w3.org/2000/svg" width="25" height="24" viewBox="0 0 25 24" fill="none">
  <path d="M9.5 12.75L11.75 15L15.5 9.75M21.5 12C21.5 13.2683 20.8704 14.3895 19.9067 15.0682C20.1081 16.2294 19.7604 17.4672 18.8637 18.3639C17.967 19.2606 16.7292 19.6083 15.568 19.4069C14.8893 20.3705 13.7682 21 12.5 21C11.2319 21 10.1107 20.3705 9.43204 19.407C8.27066 19.6086 7.03256 19.261 6.1357 18.3641C5.23886 17.4673 4.89125 16.2292 5.09286 15.0678C4.12941 14.3891 3.5 13.2681 3.5 12C3.5 10.7319 4.12946 9.61077 5.09298 8.93208C4.89147 7.77079 5.2391 6.53284 6.13587 5.63607C7.03265 4.73929 8.27063 4.39166 9.43194 4.59319C10.1106 3.62955 11.2318 3 12.5 3C13.7682 3 14.8893 3.6295 15.568 4.59307C16.7294 4.39145 17.9674 4.73906 18.8643 5.6359C19.7611 6.53274 20.1087 7.77081 19.9071 8.93218C20.8706 9.61087 21.5 10.7319 21.5 12Z" stroke="#0F172A" stroke-width="1.5" stroke-linecap="round" stroke-linejoin="round"/>
</svg>